<svg width="80" height="80" viewBox="0 0 80 80" fill="none" xmlns="http://www.w3.org/2000/svg">
<g clip-path="url(#clip0)">
<path d="M40 80C62.0914 80 80 62.0914 80 40C80 17.9086 62.0914 0 40 0C17.9086 0 0 17.9086 0 40C0 62.0914 17.9086 80 40 80Z" fill="#F0F0F0"/>
<path d="M79.9999 39.9999C79.9999 24.1415 70.771 10.439 57.3911 3.96899V76.0307C70.771 69.5609 79.9999 55.8584 79.9999 39.9999Z" fill="#D80027"/>
<path d="M0 39.9999C0 55.8584 9.22891 69.5609 22.6087 76.0309V3.96899C9.22891 10.439 0 24.1415 0 39.9999Z" fill="#6DA544"/>
<path d="M29.5649 40C29.5649 45.763 34.2368 50.4348 39.9998 50.4348C45.7628 50.4348 50.4346 45.763 50.4346 40V36.5217H29.5649V40Z" fill="#6DA544"/>
<path d="M53.9127 33.0435H43.4778C43.4778 31.1225 41.9205 29.5652 39.9995 29.5652C38.0786 29.5652 36.5213 31.1225 36.5213 33.0435H26.0864C26.0864 34.9646 27.7597 36.5217 29.6805 36.5217H29.5647C29.5647 38.4428 31.1219 40 33.043 40C33.043 41.9211 34.6002 43.4783 36.5213 43.4783H43.4778C45.3989 43.4783 46.9561 41.9211 46.9561 40C48.8772 40 50.4344 38.4428 50.4344 36.5217H50.3184C52.2395 36.5217 53.9127 34.9646 53.9127 33.0435Z" fill="#FF9811"/>
</g>
<defs>
<clipPath id="clip0">
<rect width="80" height="80" fill="white"/>
</clipPath>
</defs>
</svg>
